:FULLY-SPECIFIED
:FORCE-ALL-JOINTS-BE-3DOF
:DEGREES
408
root 4.49708 16.2801 -11.2323 0 0 0
lfemur -30.2858 4.81677 -6.38906
ltibia 0 0 0
lfoot -11.7958 12.2262 0.199834
ltoes 0 0 0
rfemur 0 0 0
rtibia 0 0 0
rfoot 0 0 0
rtoes 0 0 0
lowerback 0 0 0
upperback 1.76487 5.12191 -1.14581
thorax -0.798255 2.56326 -2.40955
lowerneck 0 0 0
upperneck 3.77661 2.1923 0.134378
head 2.44526 1.2063 -1.17557
lclavicle 0 0 0
lhumerus 0 0 0
lradius 50.4327 -0 0
lwrist 16.7409 0 0
lhand 0 0 0
lfingers 0 0 0
lthumb 0 0 0
rclavicle 0 0 0
rhumerus -45.2195 8.99639 -91.2953
rradius 63.4097 -0 0
rwrist 9.69925 0 0
rhand -22.0243 -18.7197 0.054878
rfingers 0 0 0
rthumb 4.384 -48.5809 0.0571139
409
root 4.44219 16.2613 -11.1297 0 0 0
lfemur -29.9818 5.29441 -6.32493
ltibia 0 0 0
lfoot -12.6817 11.7589 0.207451
ltoes 0 0 0
rfemur 0 0 0
rtibia 0 0 0
rfoot 0 0 0
rtoes 0 0 0
lowerback 0 0 0
upperback 1.79228 5.0084 -1.16236
thorax -0.867813 2.5059 -2.47202
lowerneck 0 0 0
upperneck 3.82397 2.4903 -0.17594
head 2.48873 1.34972 -1.29688
lclavicle 0 0 0
lhumerus 0 0 0
lradius 50.2125 -0 0
lwrist 16.4264 0 0
lhand 0 0 0
lfingers 0 0 0
lthumb 0 0 0
rclavicle 0 0 0
rhumerus -45.3049 8.60268 -91.0125
rradius 63.9976 -0 0
rwrist 9.93902 0 0
rhand -22.7993 -18.8663 0.0569686
rfingers 0 0 0
rthumb 3.63568 -48.7389 0.0592895
410
root 4.38632 16.2418 -11.0295 0 0 0
lfemur -29.6755 5.77406 -6.25786
ltibia 0 0 0
lfoot -13.5719 11.2893 0.207826
ltoes 0 0 0
rfemur 0 0 0
rtibia 0 0 0
rfoot 0 0 0
rtoes 0 0 0
lowerback 0 0 0
upperback 1.81985 4.89434 -1.17904
thorax -0.937648 2.44817 -2.53473
lowerneck 0 0 0
upperneck 3.86994 2.79002 -0.487613
head 2.53211 1.49394 -1.41869
lclavicle 0 0 0
lhumerus 0 0 0
lradius 49.9913 -0 0
lwrist 16.1103 0 0
lhand 0 0 0
lfingers 0 0 0
lthumb 0 0 0
rclavicle 0 0 0
rhumerus -45.3927 8.20745 -90.728
rradius 64.5884 -0 0
rwrist 10.18 0 0
rhand -23.5781 -19.0136 0.0570716
rfingers 0 0 0
rthumb 2.88366 -48.8977 0.0593968
411
root 4.32928 16.2216 -10.9316 0 0 0
lfemur -29.3715 6.24864 -6.18885
ltibia 0 0 0
lfoot -14.4535 10.8244 0.201008
ltoes 0 0 0
rfemur 0 0 0
rtibia 0 0 0
rfoot 0 0 0
rtoes 0 0 0
lowerback 0 0 0
upperback 1.84719 4.78141 -1.19561
thorax -1.00673 2.39093 -2.59675
lowerneck 0 0 0
upperneck 3.91386 3.08705 -0.796076
head 2.57477 1.63684 -1.53921
lclavicle 0 0 0
lhumerus 0 0 0
lradius 49.7722 -0 0
lwrist 15.7973 0 0
lhand 0 0 0
lfingers 0 0 0
lthumb 0 0 0
rclavicle 0 0 0
rhumerus -45.4814 7.81652 -90.4459
rradius 65.1735 -0 0
rwrist 10.4186 0 0
rhand -24.3493 -19.1595 0.0552004
rfingers 0 0 0
rthumb 2.13902 -49.0549 0.0574494
412
root 4.27086 16.2007 -10.8361 0 0 0
lfemur -29.0741 6.71113 -6.11904
ltibia 0 0 0
lfoot -15.3131 10.3711 0.18747
ltoes 0 0 0
rfemur 0 0 0
rtibia 0 0 0
rfoot 0 0 0
rtoes 0 0 0
lowerback 0 0 0
upperback 1.87387 4.67128 -1.21182
thorax -1.07405 2.33504 -2.65717
lowerneck 0 0 0
upperneck 3.95517 3.37694 -1.09677
head 2.61608 1.77628 -1.65665
lclavicle 0 0 0
lhumerus 0 0 0
lradius 49.5585 -0 0
lwrist 15.4921 0 0
lhand 0 0 0
lfingers 0 0 0
lthumb 0 0 0
rclavicle 0 0 0
rhumerus -45.5698 7.43569 -90.1705
rradius 65.744 -0 0
rwrist 10.6513 0 0
rhand -25.1013 -19.3018 0.0514845
rfingers 0 0 0
rthumb 1.41281 -49.2082 0.0535823
413
root 4.21084 16.1791 -10.743 0 0 0
lfemur -28.788 7.15448 -6.04973
ltibia 0 0 0
lfoot -16.1377 9.9364 0.168092
ltoes 0 0 0
rfemur 0 0 0
rtibia 0 0 0
rfoot 0 0 0
rtoes 0 0 0
lowerback 0 0 0
upperback 1.8995 4.56562 -1.22741
thorax -1.13857 2.28136 -2.71507
lowerneck 0 0 0
upperneck 3.99337 3.65526 -1.38515
head 2.65545 1.91015 -1.76924
lclavicle 0 0 0
lhumerus 0 0 0
lradius 49.3535 -0 0
lwrist 15.1992 0 0
lhand 0 0 0
lfingers 0 0 0
lthumb 0 0 0
rclavicle 0 0 0
rhumerus -45.6562 7.07073 -89.906
rradius 66.2914 -0 0
rwrist 10.8745 0 0
rhand -25.8228 -19.4382 0.0461651
rfingers 0 0 0
rthumb 0.716114 -49.3553 0.0480464
414
root 4.14903 16.1567 -10.6523 0 0 0
lfemur -28.5178 7.57172 -5.98235
ltibia 0 0 0
lfoot -16.9141 9.52734 0.144124
ltoes 0 0 0
rfemur 0 0 0
rtibia 0 0 0
rfoot 0 0 0
rtoes 0 0 0
lowerback 0 0 0
upperback 1.92366 4.46613 -1.24214
thorax -1.19928 2.23073 -2.76954
lowerneck 0 0 0
upperneck 4.02808 3.91756 -1.65665
head 2.69229 2.03629 -1.87519
lclavicle 0 0 0
lhumerus 0 0 0
lradius 49.1604 -0 0
lwrist 14.9234 0 0
lhand 0 0 0
lfingers 0 0 0
lthumb 0 0 0
rclavicle 0 0 0
rhumerus -45.739 6.72737 -89.6565
rradius 66.8069 -0 0
rwrist 11.0847 0 0
rhand -26.5023 -19.5666 0.0395851
rfingers 0 0 0
rthumb 0.0599776 -49.4936 0.0411985
415
root 4.08522 16.1337 -10.5641 0 0 0
lfemur -28.2682 7.95585 -5.91845
ltibia 0 0 0
lfoot -17.6293 9.15077 0.117137
ltoes 0 0 0
rfemur 0 0 0
rtibia 0 0 0
rfoot 0 0 0
rtoes 0 0 0
lowerback 0 0 0
upperback 1.94593 4.37446 -1.25575
thorax -1.25518 2.18404 -2.81968
lowerneck 0 0 0
upperneck 4.05897 4.15936 -1.90674
head 2.72603 2.15257 -1.97275
lclavicle 0 0 0
lhumerus 0 0 0
lradius 48.9826 -0 0
lwrist 14.6693 0 0
lhand 0 0 0
lfingers 0 0 0
lthumb 0 0 0
rclavicle 0 0 0
rhumerus -45.8167 6.41134 -89.4263
rradius 67.2818 -0 0
rwrist 11.2784 0 0
rhand -27.1284 -19.6848 0.0321752
rfingers 0 0 0
rthumb -0.544536 -49.6211 0.0334869
416
root 4.01921 16.1099 -10.4783 0 0 0
lfemur -28.0438 8.29993 -5.85969
ltibia 0 0 0
lfoot -18.2702 8.81354 0.0889554
ltoes 0 0 0
rfemur 0 0 0
rtibia 0 0 0
rfoot 0 0 0
rtoes 0 0 0
lowerback 0 0 0
upperback 1.96592 4.2923 -1.26798
thorax -1.30524 2.14215 -2.86459
lowerneck 0 0 0
upperneck 4.08576 4.37622 -2.13086
head 2.7561 2.25684 -2.06014
lclavicle 0 0 0
lhumerus 0 0 0
lradius 48.8231 -0 0
lwrist 14.4415 0 0
lhand 0 0 0
lfingers 0 0 0
lthumb 0 0 0
rclavicle 0 0 0
rhumerus -45.8873 6.12834 -89.2198
rradius 67.7076 -0 0
rwrist 11.4521 0 0
rhand -27.6895 -19.7907 0.0244361
rfingers 0 0 0
rthumb -1.08637 -49.7352 0.0254324
417
root 3.95078 16.0854 -10.395 0 0 0
lfemur -27.8496 8.59701 -5.80778
ltibia 0 0 0
lfoot -18.8238 8.52247 0.0615722
ltoes 0 0 0
rfemur 0 0 0
rtibia 0 0 0
rfoot 0 0 0
rtoes 0 0 0
lowerback 0 0 0
upperback 1.9832 4.22132 -1.27856
thorax -1.34847 2.10592 -2.90335
lowerneck 0 0 0
upperneck 4.10823 4.56365 -2.32446
head 2.78196 2.34697 -2.13561
lclavicle 0 0 0
lhumerus 0 0 0
lradius 48.6854 -0 0
lwrist 14.2448 0 0
lhand 0 0 0
lfingers 0 0 0
lthumb 0 0 0
rclavicle 0 0 0
rhumerus -45.9491 5.88404 -89.0412
rradius 68.0754 -0 0
rwrist 11.6021 0 0
rhand -28.1743 -19.8821 0.0169151
rfingers 0 0 0
rthumb -1.55447 -49.8338 0.0176049
418
root 3.87973 16.0601 -10.3142 0 0 0
lfemur -27.6902 8.84015 -5.76449
ltibia 0 0 0
lfoot -19.277 8.28432 0.0370549
ltoes 0 0 0
rfemur 0 0 0
rtibia 0 0 0
rfoot 0 0 0
rtoes 0 0 0
lowerback 0 0 0
upperback 1.99735 4.1632 -1.28724
thorax -1.38384 2.07624 -2.93507
lowerneck 0 0 0
upperneck 4.12616 4.7172 -2.48298
head 2.80304 2.4208 -2.19738
lclavicle 0 0 0
lhumerus 0 0 0
lradius 48.5726 -0 0
lwrist 14.0836 0 0
lhand 0 0 0
lfingers 0 0 0
lthumb 0 0 0
rclavicle 0 0 0
rhumerus -46.0003 5.68413 -88.8948
rradius 68.3766 -0 0
rwrist 11.7249 0 0
rhand -28.5713 -19.9569 0.0101804
rfingers 0 0 0
rthumb -1.93779 -49.9144 0.0105956
419
root 3.80586 16.034 -10.2359 0 0 0
lfemur -27.5704 9.02244 -5.73155
ltibia 0 0 0
lfoot -19.6168 8.10583 0.0174312
ltoes 0 0 0
rfemur 0 0 0
rtibia 0 0 0
rfoot 0 0 0
rtoes 0 0 0
lowerback 0 0 0
upperback 2.00798 4.11961 -1.29377
thorax -1.41037 2.05396 -2.95885
lowerneck 0 0 0
upperneck 4.13933 4.83239 -2.60186
head 2.81881 2.47618 -2.24369
lclavicle 0 0 0
lhumerus 0 0 0
lradius 48.488 -0 0
lwrist 13.9628 0 0
lhand 0 0 0
lfingers 0 0 0
lthumb 0 0 0
rclavicle 0 0 0
rhumerus -46.039 5.53429 -88.7849
rradius 68.6025 -0 0
rwrist 11.817 0 0
rhand -28.869 -20.013 0.00478926
rfingers 0 0 0
rthumb -2.22527 -49.9749 0.00498463
420
root 3.72896 16.0072 -10.1602 0 0 0
lfemur -27.4951 9.13691 -5.71065
ltibia 0 0 0
lfoot -19.8303 7.99377 0.00456226
ltoes 0 0 0
rfemur 0 0 0
rtibia 0 0 0
rfoot 0 0 0
rtoes 0 0 0
lowerback 0 0 0
upperback 2.01465 4.09223 -1.29787
thorax -1.42702 2.03996 -2.97378
lowerneck 0 0 0
upperneck 4.14748 4.90477 -2.67654
head 2.82869 2.51099 -2.27278
lclavicle 0 0 0
lhumerus 0 0 0
lradius 48.4348 -0 0
lwrist 13.8868 0 0
lhand 0 0 0
lfingers 0 0 0
lthumb 0 0 0
rclavicle 0 0 0
rhumerus -46.0635 5.44019 -88.7158
rradius 68.7444 -0 0
rwrist 11.8749 0 0
rhand -29.056 -20.0482 0.00125354
rfingers 0 0 0
rthumb -2.40587 -50.0128 0.00130467
421
root 3.64883 15.9796 -10.087 2.60529 -33.3378 -4.78457
lfemur -27.469 9.17662 -5.70336
ltibia 53.1179 0 0
lfoot -19.9043 7.9549 0
ltoes -3.09478 0 0
rfemur -42.7057 -8.13861 11.7066
rtibia 57.8777 0 0
rfoot 5.23723 -0.414708 0
rtoes 12.7912 0 0
lowerback 6.74941 2.98295 2.37203
upperback 2.01697 4.08273 -1.29929
thorax -1.4328 2.0351 -2.97896
lowerneck -6.47526 4.19151 9.17863
upperneck 4.15029 4.92988 -2.70245
head 2.83211 2.52306 -2.28287
lclavicle -5.38706e-14 3.49861e-14 0
lhumerus -43.9634 -20.3278 95.3621
lradius 48.4164 0 0
lwrist 13.8605 0 0
lhand -21.1512 0.000502357 0
lfingers 7.12502 0 0
lthumb 5.22839 29.916 0
rclavicle -5.38706e-14 3.49861e-14 0
rhumerus -46.072 5.40755 -88.6918
rradius 68.7936 0 0
rwrist 11.895 0 0
rhand -29.1209 -20.0604 0
rfingers 7.12502 0 0
rthumb -2.46852 -50.026 0
422
root 3.56157 15.9493 -10.0179 0 0 0
lfemur -28.0257 9.34588 -5.40019
ltibia 0 0 0
lfoot 0 0 0
ltoes -3.3662 0 0
rfemur -41.9164 -8.02736 11.5972
rtibia 0 0 0
rfoot 0 0 0
rtoes 11.0275 -0 0
lowerback 6.72978 2.94367 2.42894
upperback 1.98952 4.03586 -1.23695
thorax 0 0 0
lowerneck -6.4981 4.07495 9.07753
upperneck 0 0 0
head 0 0 0
lclavicle 0 0 0
lhumerus 0 0 0
lradius 48.5778 -0 0
lwrist 0 0 0
lhand -21.1212 -0.0363777 -0.000333328
lfingers 0 0 0
lthumb 0 0 0
rclavicle 0 0 0
rhumerus -46.1385 5.1846 -88.7253
rradius 0 0 0
rwrist 0 0 0
rhand -29.1715 -20.3155 0.00389408
rfingers 0 0 0
rthumb 0 0 0
423
root 3.46433 15.9147 -9.95417 0 0 0
lfemur -28.7415 9.56803 -5.01215
ltibia 0 0 0
lfoot 0 0 0
ltoes -3.71561 0 0
rfemur -40.9009 -7.88197 11.4586
rtibia 0 0 0
rfoot 0 0 0
rtoes 8.75691 -0 0
lowerback 6.70445 2.89314 2.50221
upperback 1.95412 3.97557 -1.15667
thorax 0 0 0
lowerneck -6.52719 3.92484 8.94747
upperneck 0 0 0
head 0 0 0
lclavicle 0 0 0
lhumerus 0 0 0
lradius 48.7856 -0 0
lwrist 0 0 0
lhand -21.0825 -0.0838558 -0.000733977
lfingers 0 0 0
lthumb 0 0 0
rclavicle 0 0 0
rhumerus -46.2239 4.89753 -88.768
rradius 0 0 0
rwrist 0 0 0
rhand -29.2367 -20.6438 0.00857522
rfingers 0 0 0
rthumb 0 0 0
424
root 3.35843 15.8765 -9.89528 0 0 0
lfemur -29.5965 9.84008 -4.5513
ltibia 0 0 0
lfoot 0 0 0
ltoes -4.13366 0 0
rfemur -39.6869 -7.70486 11.2964
rtibia 0 0 0
rfoot 0 0 0
rtoes 6.04035 -0 0
lowerback 6.67407 2.83272 2.58991
upperback 1.91165 3.9035 -1.06057
thorax 0 0 0
lowerneck -6.56154 3.74515 8.79199
upperneck 0 0 0
head 0 0 0
lclavicle 0 0 0
lhumerus 0 0 0
lradius 49.0341 -0 0
lwrist 0 0 0
lhand -21.0362 -0.14066 -0.00117123
lfingers 0 0 0
lthumb 0 0 0
rclavicle 0 0 0
rhumerus -46.3257 4.55398 -88.8186
rradius 0 0 0
rwrist 0 0 0
rhand -29.3148 -21.0367 0.0136847
rfingers 0 0 0
rthumb 0 0 0
425
root 3.24521 15.8352 -9.84076 0 0 0
lfemur -30.5709 10.1589 -4.02973
ltibia 0 0 0
lfoot 0 0 0
ltoes -4.61099 0 0
rfemur -38.3021 -7.49853 11.1159
rtibia 0 0 0
rfoot 0 0 0
rtoes 2.93861 -0 0
lowerback 6.63926 2.76379 2.69007
upperback 1.86301 3.8213 -0.9508
thorax 0 0 0
lowerneck -6.60015 3.53988 8.61464
upperneck 0 0 0
head 0 0 0
lclavicle 0 0 0
lhumerus 0 0 0
lradius 49.318 -0 0
lwrist 0 0 0
lhand -20.9834 -0.20552 -0.0016144
lfingers 0 0 0
lthumb 0 0 0
rclavicle 0 0 0
rhumerus -46.4415 4.16161 -88.8755
rradius 0 0 0
rwrist 0 0 0
rhand -29.4039 -21.4853 0.0188642
rfingers 0 0 0
rthumb 0 0 0
